<svg style="width: 100%" width="69.896mm" height="69.702mm" version="1.1" viewBox="0 0 69.896 69.702"><title>Ruby logo</title><defs><linearGradient id="linearGradient6" x2="1" gradientTransform="matrix(-41.8 -73.8 73.8 -41.8 381.75 -279.75)" gradientUnits="userSpaceOnUse"><stop stop-color="#fb7655" offset="0"/><stop stop-color="#e42b1e" offset=".41"/><stop stop-color="#900" offset=".99001"/><stop stop-color="#900" offset="1"/></linearGradient><linearGradient id="linearGradient10" x2="1" gradientTransform="matrix(-53.869 -36.149 36.149 -53.869 402.57 -341.73)" gradientUnits="userSpaceOnUse"><stop stop-color="#871101" offset="0"/><stop stop-color="#911209" offset=".99001"/><stop stop-color="#911209" offset="1"/></linearGradient><linearGradient id="linearGradient14" x2="1" gradientTransform="matrix(-53.869 -36.149 36.149 -53.869 359.47 -277.51)" gradientUnits="userSpaceOnUse"><stop stop-color="#871101" offset="0"/><stop stop-color="#911209" offset=".99001"/><stop stop-color="#911209" offset="1"/></linearGradient><linearGradient id="linearGradient20" x2="1" gradientTransform="matrix(8.351 54.273 -54.273 8.351 246.38 -367.9)" gradientUnits="userSpaceOnUse"><stop stop-color="#fff" offset="0"/><stop stop-color="#e57252" offset=".23"/><stop stop-color="#de3b20" offset=".46001"/><stop stop-color="#a60003" offset=".99001"/><stop stop-color="#a60003" offset="1"/></linearGradient><linearGradient id="linearGradient26" x2="1" gradientTransform="matrix(3.077 55.39 -55.39 3.077 303.81 -418.58)" gradientUnits="userSpaceOnUse"><stop stop-color="#fff" offset="0"/><stop stop-color="#e4714e" offset=".23"/><stop stop-color="#be1a0d" offset=".56"/><stop stop-color="#a80d00" offset=".99001"/><stop stop-color="#a80d00" offset="1"/></linearGradient><linearGradient id="linearGradient32" x2="1" gradientTransform="matrix(9.211 39.695 -39.695 9.211 354.78 -469.77)" gradientUnits="userSpaceOnUse"><stop stop-color="#fff" offset="0"/><stop stop-color="#e46342" offset=".17999"/><stop stop-color="#c82410" offset=".39999"/><stop stop-color="#a80d00" offset=".99001"/><stop stop-color="#a80d00" offset="1"/></linearGradient><linearGradient id="linearGradient37" x2="1" gradientTransform="matrix(39.694 -19.847 19.847 39.694 326.66 -483.75)" gradientUnits="userSpaceOnUse"><stop stop-color="#fff" offset="0"/><stop stop-color="#c81f11" offset=".53999"/><stop stop-color="#bf0905" offset=".99001"/><stop stop-color="#bf0905" offset="1"/></linearGradient><linearGradient id="linearGradient42" x2="1" gradientTransform="matrix(3.267 32.71 -32.71 3.267 211.58 -381.73)" gradientUnits="userSpaceOnUse"><stop stop-color="#fff" offset="0"/><stop stop-color="#de4024" offset=".31"/><stop stop-color="#bf190b" offset=".99001"/><stop stop-color="#bf190b" offset="1"/></linearGradient><linearGradient id="linearGradient52" x2="1" gradientTransform="matrix(153.57 -157.92 157.92 153.57 189.12 -340.18)" gradientUnits="userSpaceOnUse"><stop stop-color="#bd0012" offset="0"/><stop stop-color="#fff" offset=".07001"/><stop stop-color="#fff" offset=".17"/><stop stop-color="#c82f1c" offset=".27"/><stop stop-color="#820c01" offset=".33"/><stop stop-color="#a31601" offset=".46001"/><stop stop-color="#b31301" offset=".72"/><stop stop-color="#e82609" offset=".99001"/><stop stop-color="#e82609" offset="1"/></linearGradient><linearGradient id="linearGradient57" x2="1" gradientTransform="matrix(-46.254 -11.416 11.416 -46.254 306.76 -324.26)" gradientUnits="userSpaceOnUse"><stop stop-color="#8c0c01" offset="0"/><stop stop-color="#990c00" offset=".53999"/><stop stop-color="#a80d0e" offset=".99001"/><stop stop-color="#a80d0e" offset="1"/></linearGradient><linearGradient id="linearGradient61" x2="1" gradientTransform="matrix(-41.094 -36.831 36.831 -41.094 386.21 -379.78)" gradientUnits="userSpaceOnUse"><stop stop-color="#7e110b" offset="0"/><stop stop-color="#9e0c00" offset=".99001"/><stop stop-color="#9e0c00" offset="1"/></linearGradient><linearGradient id="linearGradient65" x2="1" gradientTransform="matrix(-20.47 -21.884 21.884 -20.47 401.3 -447.35)" gradientUnits="userSpaceOnUse"><stop stop-color="#79130d" offset="0"/><stop stop-color="#9e120b" offset=".99001"/><stop stop-color="#9e120b" offset="1"/></linearGradient><radialGradient id="radialGradient69" cx="0" cy="0" r="1" gradientTransform="matrix(50.36 0 0 50.36 351.51 -415.9)" gradientUnits="userSpaceOnUse"><stop stop-color="#a80d00" offset="0"/><stop stop-color="#7e0e08" offset=".99001"/><stop stop-color="#7e0e08" offset="1"/></radialGradient><radialGradient id="radialGradient73" cx="0" cy="0" r="1" gradientTransform="matrix(66.947 0 0 66.947 281.77 -349.54)" gradientUnits="userSpaceOnUse"><stop stop-color="#a30c00" offset="0"/><stop stop-color="#800e08" offset=".99001"/><stop stop-color="#800e08" offset="1"/></radialGradient><linearGradient id="linearGradient78" x2="1" gradientTransform="matrix(-16.682 -56.597 56.597 -16.682 234.35 -297.95)" gradientUnits="userSpaceOnUse"><stop stop-color="#8b2114" offset="0"/><stop stop-color="#9e100a" offset=".42999"/><stop stop-color="#b3100c" offset=".99001"/><stop stop-color="#b3100c" offset="1"/></linearGradient><linearGradient id="linearGradient83" x2="1" gradientTransform="matrix(37.4 16.509 -16.509 37.4 362.32 -485.49)" gradientUnits="userSpaceOnUse"><stop stop-color="#b31000" offset="0"/><stop stop-color="#910f08" offset=".44"/><stop stop-color="#791c12" offset=".99001"/><stop stop-color="#791c12" offset="1"/></linearGradient></defs><g transform="translate(-78.052 -23.812)"><g transform="matrix(.26458 0 0 .26458 4.7871 -80.86)" fill-rule="evenodd"><path transform="matrix(1.3333 0 0 1.3333 0 1056)" d="m248.06-297.71 146.47-9.9399 11.28-147.69s-44.63 90.46-44.63 90.46l-113.12 67.17z" fill="url(#linearGradient6)"/><path transform="matrix(1.3333 0 0 1.3333 0 1056)" d="m347.89-349.36 46.88 41.61-12.59-86.89s-34.29 45.28-34.29 45.28z" fill="url(#linearGradient10)"/><path transform="matrix(1.3333 0 0 1.3333 0 1056)" d="m248.55-297.9 146.39-9.8501-92.23-7.2402-54.16 17.09z" fill="url(#linearGradient14)"/><path transform="matrix(1.3333 0 0 1.3333 0 1056)" d="m221.02-362.52s27.66 64.64 27.66 64.64 23.04-75.48 23.04-75.48l-50.7 10.84z" fill="url(#linearGradient20)"/><path transform="matrix(1.3333 0 0 1.3333 0 1056)" d="m266.01-375.28 81.87 26.17s-21.2-83.04-21.2-83.04z" fill="url(#linearGradient26)"/><path transform="matrix(1.3333 0 0 1.3333 0 1056)" d="m327.68-426.19 73.32-4.79-57.35-46.84s-15.97 51.63-15.97 51.63z" fill="url(#linearGradient32)"/><path transform="matrix(1.3333 0 0 1.3333 0 1056)" d="m319.17-494.77 55.01 0.25-33.73 18.64z" fill="url(#linearGradient37)"/><path transform="matrix(1.3333 0 0 1.3333 0 1056)" d="m210.38-393.67-2.6997 56.47 14.13-25.77z" fill="url(#linearGradient42)"/><path transform="matrix(1.3333 0 0 1.3333 0 1056)" d="m209.62-394.64 11.5 32.62 49.97-11.21 57.05-53.02s16.1-51.14 16.1-51.14l-25.35-17.9-43.1 16.13c-13.58 12.63-39.93 37.62-40.88 38.09-0.93995 0.47998-17.4 31.59-25.29 46.43z" fill="#fff"/><path transform="matrix(1.3333 0 0 1.3333 0 1056)" d="m250-453.24c29.43-29.18 67.37-46.42 81.93-31.73 14.55 14.69-0.88038 50.39-30.31 79.56-29.43 29.17-66.9 47.36-81.45 32.67-14.56-14.68 0.3999-51.33 29.83-80.5z" fill="url(#linearGradient52)"/><path transform="matrix(1.3333 0 0 1.3333 0 1056)" d="m248.68-297.91s22.86-75.72 22.86-75.72l75.92 24.39c-27.45 25.74-57.98 47.5-98.78 51.33z" fill="url(#linearGradient57)"/><path transform="matrix(1.3333 0 0 1.3333 0 1056)" d="m328.24-426.4 19.49 77.2c22.93-24.11 43.51-50.03 53.59-82.09z" fill="url(#linearGradient61)"/><path transform="matrix(1.3333 0 0 1.3333 0 1056)" d="m401.12-430.9c7.7998-23.54 9.5996-57.31-27.18-63.58l-30.18 16.67z" fill="url(#linearGradient65)"/><path transform="matrix(1.3333 0 0 1.3333 0 1056)" d="m207.68-337.54c1.0796 38.85 29.11 39.43 41.05 39.77l-27.58-64.41-13.47 24.64z" fill="#9e1209"/><path transform="matrix(1.3333 0 0 1.3333 0 1056)" d="m328.35-426.28c17.62 10.83 53.13 32.58 53.85 32.98 1.1196 0.62988 15.31-23.93 18.53-37.81l-72.38 4.8301z" fill="url(#radialGradient69)"/><path transform="matrix(1.3333 0 0 1.3333 0 1056)" d="m271.51-373.63 30.56 58.96c18.07-9.8003 32.22-21.74 45.18-34.53z" fill="url(#radialGradient73)"/><path transform="matrix(1.3333 0 0 1.3333 0 1056)" d="m221.03-362.1s-4.3296 51.56-4.3296 51.56c8.1699 11.16 19.41 12.13 31.2 11.26-8.5298-21.23-25.57-63.68-26.87-62.82z" fill="url(#linearGradient78)"/><path transform="matrix(1.3333 0 0 1.3333 0 1056)" d="m343.58-477.68s60.71 8.52 60.71 8.52c-3.2402-13.73-13.19-22.59-30.15-25.36l-30.56 16.84z" fill="url(#linearGradient83)"/></g></g></svg>
